<svg xmlns="http://www.w3.org/2000/svg" viewBox="0 0 780 160" width="780" height="160">
  <defs>
    <linearGradient id="bg" x1="0%" y1="0%" x2="100%" y2="100%">
      <stop offset="0%" style="stop-color:#0d1117"/>
      <stop offset="100%" style="stop-color:#161b22"/>
    </linearGradient>
    <linearGradient id="accent" x1="0%" y1="0%" x2="100%" y2="0%">
      <stop offset="0%" style="stop-color:#92400e"/>
      <stop offset="100%" style="stop-color:#f59e0b"/>
    </linearGradient>
  </defs>
  <rect width="780" height="160" fill="url(#bg)" rx="12"/>
  <rect x="0" y="0" width="6" height="160" fill="url(#accent)" rx="3"/>
  <rect x="48" y="42" width="52" height="11" rx="4" fill="#f59e0b" opacity="0.9"/>
  <rect x="48" y="57" width="52" height="11" rx="4" fill="#d97706" opacity="0.95"/>
  <rect x="48" y="72" width="52" height="11" rx="4" fill="#b45309"/>
  <rect x="48" y="87" width="52" height="11" rx="4" fill="#92400e"/>
  <polyline points="52,38 60,30 68,34 76,28 84,32 92,26 100,30" stroke="#f59e0b" stroke-width="1.5" fill="none" stroke-linecap="round"/>
  <circle cx="52" cy="38" r="2.5" fill="#f59e0b" opacity="0.8"/>
  <circle cx="68" cy="34" r="2.5" fill="#f59e0b" opacity="0.8"/>
  <circle cx="84" cy="32" r="2.5" fill="#f59e0b" opacity="0.8"/>
  <circle cx="100" cy="30" r="2.5" fill="#f59e0b" opacity="0.8"/>
  <text x="120" y="72" fill="white" font-family="ui-monospace, 'SF Mono', monospace" font-size="32" font-weight="800" letter-spacing="-1">layer-tl-types</text>
  <text x="120" y="100" fill="#f59e0b" font-family="-apple-system, BlinkMacSystemFont, sans-serif" font-size="15">All 2,329 Telegram API types as idiomatic Rust</text>
  <text x="120" y="124" fill="#374151" font-family="ui-monospace, monospace" font-size="12">Constructors · Enums · Functions · Serialize · Deserialize · Layer 224</text>
  <rect x="616" y="56" width="124" height="28" rx="6" fill="#92400e" opacity="0.25" stroke="#92400e" stroke-width="1" stroke-opacity="0.5"/>
  <text x="678" y="75" text-anchor="middle" fill="#fcd34d" font-family="ui-monospace, monospace" font-size="12" font-weight="600">Build-time</text>
  <rect x="616" y="92" width="124" height="28" rx="6" fill="#065f46" opacity="0.25" stroke="#065f46" stroke-width="1" stroke-opacity="0.5"/>
  <text x="678" y="111" text-anchor="middle" fill="#6ee7b7" font-family="ui-monospace, monospace" font-size="12" font-weight="600">2,329 types</text>
</svg>